<?xml version="1.0" encoding="UTF-8" standalone="no"?><svg xmlns="http://www.w3.org/2000/svg" xmlns:xlink="http://www.w3.org/1999/xlink" contentScriptType="application/ecmascript" contentStyleType="text/css" height="104px" preserveAspectRatio="none" style="width:1382px;height:104px;" version="1.1" viewBox="0 0 1382 104" width="1382px" zoomAndPan="magnify"><defs/><g><line style="stroke: #000000; stroke-width: 1.7;" x1="10" x2="10" y1="10" y2="73.9375"/><line style="stroke: #000000; stroke-width: 1.7;" x1="1370" x2="1370" y1="10" y2="73.9375"/><text fill="#000000" font-family="sans-serif" font-size="12" lengthAdjust="spacingAndGlyphs" textLength="54" x="15" y="21.1387">thread 0</text><line style="stroke: #000000; stroke-width: 1.0;" x1="10" x2="70" y1="24.9688" y2="24.9688"/><line style="stroke: #000000; stroke-width: 1.0;" x1="70" x2="80" y1="24.9688" y2="10"/><polygon fill="#FF0000" points="27,31.9375,603,31.9375,615,43.9375,603,55.9375,27,55.9375,15,43.9375" style="stroke: #038048; stroke-width: 1.5;"/><polygon fill="#FF0000" points="627,31.9375,1203,31.9375,1215,43.9375,1203,55.9375,627,55.9375,615,43.9375" style="stroke: #038048; stroke-width: 1.5;"/><text fill="#000000" font-family="sans-serif" font-size="12" lengthAdjust="spacingAndGlyphs" textLength="132" x="249" y="48.0918">catkin_tools_prebuild</text><text fill="#000000" font-family="sans-serif" font-size="12" lengthAdjust="spacingAndGlyphs" textLength="48" x="891" y="48.0918">turtlepy</text><line style="stroke: #000000; stroke-width: 1.7;" x1="10" x2="1370" y1="10" y2="10"/><line style="stroke: #000000; stroke-width: 2.0;" x1="15" x2="15" y1="73.9375" y2="78.9375"/><line style="stroke: #000000; stroke-width: 2.0;" x1="165" x2="165" y1="73.9375" y2="78.9375"/><line style="stroke: #000000; stroke-width: 2.0;" x1="315" x2="315" y1="73.9375" y2="78.9375"/><line style="stroke: #000000; stroke-width: 2.0;" x1="465" x2="465" y1="73.9375" y2="78.9375"/><line style="stroke: #000000; stroke-width: 2.0;" x1="615" x2="615" y1="73.9375" y2="78.9375"/><line style="stroke: #000000; stroke-width: 2.0;" x1="765" x2="765" y1="73.9375" y2="78.9375"/><line style="stroke: #000000; stroke-width: 2.0;" x1="915" x2="915" y1="73.9375" y2="78.9375"/><line style="stroke: #000000; stroke-width: 2.0;" x1="1065" x2="1065" y1="73.9375" y2="78.9375"/><line style="stroke: #000000; stroke-width: 2.0;" x1="1215" x2="1215" y1="73.9375" y2="78.9375"/><line style="stroke: #000000; stroke-width: 2.0;" x1="1365" x2="1365" y1="73.9375" y2="78.9375"/><line style="stroke: #000000; stroke-width: 2.0;" x1="15" x2="1365" y1="73.9375" y2="73.9375"/><text fill="#000000" font-family="sans-serif" font-size="12" lengthAdjust="spacingAndGlyphs" textLength="8" x="11" y="91.0762">0</text><text fill="#000000" font-family="sans-serif" font-size="12" lengthAdjust="spacingAndGlyphs" textLength="8" x="161" y="91.0762">1</text><text fill="#000000" font-family="sans-serif" font-size="12" lengthAdjust="spacingAndGlyphs" textLength="8" x="311" y="91.0762">2</text><text fill="#000000" font-family="sans-serif" font-size="12" lengthAdjust="spacingAndGlyphs" textLength="8" x="461" y="91.0762">3</text><text fill="#000000" font-family="sans-serif" font-size="12" lengthAdjust="spacingAndGlyphs" textLength="8" x="611" y="91.0762">4</text><text fill="#000000" font-family="sans-serif" font-size="12" lengthAdjust="spacingAndGlyphs" textLength="8" x="761" y="91.0762">5</text><text fill="#000000" font-family="sans-serif" font-size="12" lengthAdjust="spacingAndGlyphs" textLength="8" x="911" y="91.0762">6</text><text fill="#000000" font-family="sans-serif" font-size="12" lengthAdjust="spacingAndGlyphs" textLength="8" x="1061" y="91.0762">7</text><text fill="#000000" font-family="sans-serif" font-size="12" lengthAdjust="spacingAndGlyphs" textLength="8" x="1211" y="91.0762">8</text><text fill="#000000" font-family="sans-serif" font-size="12" lengthAdjust="spacingAndGlyphs" textLength="8" x="1361" y="91.0762">9</text></g></svg>