<?xml version="1.0" encoding="UTF-8" standalone="no"?><svg xmlns="http://www.w3.org/2000/svg" xmlns:xlink="http://www.w3.org/1999/xlink" contentScriptType="application/ecmascript" contentStyleType="text/css" height="168px" preserveAspectRatio="none" style="width:2755px;height:168px;" version="1.1" viewBox="0 0 2755 168" width="2755px" zoomAndPan="magnify"><defs/><g><line style="stroke: #000000; stroke-width: 1.7;" x1="10" x2="10" y1="10" y2="137.875"/><line style="stroke: #000000; stroke-width: 1.7;" x1="2740" x2="2740" y1="10" y2="137.875"/><text fill="#000000" font-family="sans-serif" font-size="12" lengthAdjust="spacingAndGlyphs" textLength="54" x="15" y="21.1387">thread 0</text><line style="stroke: #000000; stroke-width: 1.0;" x1="10" x2="70" y1="24.9688" y2="24.9688"/><line style="stroke: #000000; stroke-width: 1.0;" x1="70" x2="80" y1="24.9688" y2="10"/><polygon fill="#FF0000" points="27,31.9375,323,31.9375,335,43.9375,323,55.9375,27,55.9375,15,43.9375" style="stroke: #038048; stroke-width: 1.5;"/><polygon fill="#D7E0F2" points="347,31.9375,563,31.9375,575,43.9375,563,55.9375,347,55.9375,335,43.9375" style="stroke: #038048; stroke-width: 1.5;"/><text fill="#000000" font-family="sans-serif" font-size="12" lengthAdjust="spacingAndGlyphs" textLength="132" x="109" y="48.0918">catkin_tools_prebuild</text><text fill="#000000" font-family="sans-serif" font-size="12" lengthAdjust="spacingAndGlyphs" textLength="211" x="349.5" y="48.0918">nexus_4wd_mecanum_description</text><line style="stroke: #000000; stroke-width: 1.7;" x1="10" x2="2740" y1="10" y2="10"/><text fill="#000000" font-family="sans-serif" font-size="12" lengthAdjust="spacingAndGlyphs" textLength="54" x="15" y="85.0762">thread 1</text><line style="stroke: #000000; stroke-width: 1.0;" x1="10" x2="70" y1="88.9063" y2="88.9063"/><line style="stroke: #000000; stroke-width: 1.0;" x1="70" x2="80" y1="88.9063" y2="73.9375"/><polygon fill="#FF0000" points="347,95.875,2643,95.875,2655,107.875,2643,119.875,347,119.875,335,107.875" style="stroke: #038048; stroke-width: 1.5;"/><text fill="#000000" font-family="sans-serif" font-size="12" lengthAdjust="spacingAndGlyphs" textLength="186" x="1402" y="112.0293">nexus_4wd_mecanum_gazebo</text><line style="stroke: #000000; stroke-width: 1.7;" x1="10" x2="2740" y1="73.9375" y2="73.9375"/><line style="stroke: #000000; stroke-width: 2.0;" x1="15" x2="15" y1="137.875" y2="142.875"/><line style="stroke: #000000; stroke-width: 2.0;" x1="95" x2="95" y1="137.875" y2="142.875"/><line style="stroke: #000000; stroke-width: 2.0;" x1="175" x2="175" y1="137.875" y2="142.875"/><line style="stroke: #000000; stroke-width: 2.0;" x1="255" x2="255" y1="137.875" y2="142.875"/><line style="stroke: #000000; stroke-width: 2.0;" x1="335" x2="335" y1="137.875" y2="142.875"/><line style="stroke: #000000; stroke-width: 2.0;" x1="415" x2="415" y1="137.875" y2="142.875"/><line style="stroke: #000000; stroke-width: 2.0;" x1="495" x2="495" y1="137.875" y2="142.875"/><line style="stroke: #000000; stroke-width: 2.0;" x1="575" x2="575" y1="137.875" y2="142.875"/><line style="stroke: #000000; stroke-width: 2.0;" x1="655" x2="655" y1="137.875" y2="142.875"/><line style="stroke: #000000; stroke-width: 2.0;" x1="735" x2="735" y1="137.875" y2="142.875"/><line style="stroke: #000000; stroke-width: 2.0;" x1="815" x2="815" y1="137.875" y2="142.875"/><line style="stroke: #000000; stroke-width: 2.0;" x1="895" x2="895" y1="137.875" y2="142.875"/><line style="stroke: #000000; stroke-width: 2.0;" x1="975" x2="975" y1="137.875" y2="142.875"/><line style="stroke: #000000; stroke-width: 2.0;" x1="1055" x2="1055" y1="137.875" y2="142.875"/><line style="stroke: #000000; stroke-width: 2.0;" x1="1135" x2="1135" y1="137.875" y2="142.875"/><line style="stroke: #000000; stroke-width: 2.0;" x1="1215" x2="1215" y1="137.875" y2="142.875"/><line style="stroke: #000000; stroke-width: 2.0;" x1="1295" x2="1295" y1="137.875" y2="142.875"/><line style="stroke: #000000; stroke-width: 2.0;" x1="1375" x2="1375" y1="137.875" y2="142.875"/><line style="stroke: #000000; stroke-width: 2.0;" x1="1455" x2="1455" y1="137.875" y2="142.875"/><line style="stroke: #000000; stroke-width: 2.0;" x1="1535" x2="1535" y1="137.875" y2="142.875"/><line style="stroke: #000000; stroke-width: 2.0;" x1="1615" x2="1615" y1="137.875" y2="142.875"/><line style="stroke: #000000; stroke-width: 2.0;" x1="1695" x2="1695" y1="137.875" y2="142.875"/><line style="stroke: #000000; stroke-width: 2.0;" x1="1775" x2="1775" y1="137.875" y2="142.875"/><line style="stroke: #000000; stroke-width: 2.0;" x1="1855" x2="1855" y1="137.875" y2="142.875"/><line style="stroke: #000000; stroke-width: 2.0;" x1="1935" x2="1935" y1="137.875" y2="142.875"/><line style="stroke: #000000; stroke-width: 2.0;" x1="2015" x2="2015" y1="137.875" y2="142.875"/><line style="stroke: #000000; stroke-width: 2.0;" x1="2095" x2="2095" y1="137.875" y2="142.875"/><line style="stroke: #000000; stroke-width: 2.0;" x1="2175" x2="2175" y1="137.875" y2="142.875"/><line style="stroke: #000000; stroke-width: 2.0;" x1="2255" x2="2255" y1="137.875" y2="142.875"/><line style="stroke: #000000; stroke-width: 2.0;" x1="2335" x2="2335" y1="137.875" y2="142.875"/><line style="stroke: #000000; stroke-width: 2.0;" x1="2415" x2="2415" y1="137.875" y2="142.875"/><line style="stroke: #000000; stroke-width: 2.0;" x1="2495" x2="2495" y1="137.875" y2="142.875"/><line style="stroke: #000000; stroke-width: 2.0;" x1="2575" x2="2575" y1="137.875" y2="142.875"/><line style="stroke: #000000; stroke-width: 2.0;" x1="2655" x2="2655" y1="137.875" y2="142.875"/><line style="stroke: #000000; stroke-width: 2.0;" x1="2735" x2="2735" y1="137.875" y2="142.875"/><line style="stroke: #000000; stroke-width: 2.0;" x1="15" x2="2735" y1="137.875" y2="137.875"/><text fill="#000000" font-family="sans-serif" font-size="12" lengthAdjust="spacingAndGlyphs" textLength="8" x="11" y="155.0137">0</text><text fill="#000000" font-family="sans-serif" font-size="12" lengthAdjust="spacingAndGlyphs" textLength="8" x="91" y="155.0137">1</text><text fill="#000000" font-family="sans-serif" font-size="12" lengthAdjust="spacingAndGlyphs" textLength="8" x="171" y="155.0137">2</text><text fill="#000000" font-family="sans-serif" font-size="12" lengthAdjust="spacingAndGlyphs" textLength="8" x="251" y="155.0137">3</text><text fill="#000000" font-family="sans-serif" font-size="12" lengthAdjust="spacingAndGlyphs" textLength="8" x="331" y="155.0137">4</text><text fill="#000000" font-family="sans-serif" font-size="12" lengthAdjust="spacingAndGlyphs" textLength="8" x="411" y="155.0137">5</text><text fill="#000000" font-family="sans-serif" font-size="12" lengthAdjust="spacingAndGlyphs" textLength="8" x="491" y="155.0137">6</text><text fill="#000000" font-family="sans-serif" font-size="12" lengthAdjust="spacingAndGlyphs" textLength="8" x="571" y="155.0137">7</text><text fill="#000000" font-family="sans-serif" font-size="12" lengthAdjust="spacingAndGlyphs" textLength="8" x="651" y="155.0137">8</text><text fill="#000000" font-family="sans-serif" font-size="12" lengthAdjust="spacingAndGlyphs" textLength="8" x="731" y="155.0137">9</text><text fill="#000000" font-family="sans-serif" font-size="12" lengthAdjust="spacingAndGlyphs" textLength="16" x="807" y="155.0137">10</text><text fill="#000000" font-family="sans-serif" font-size="12" lengthAdjust="spacingAndGlyphs" textLength="16" x="887" y="155.0137">11</text><text fill="#000000" font-family="sans-serif" font-size="12" lengthAdjust="spacingAndGlyphs" textLength="16" x="967" y="155.0137">12</text><text fill="#000000" font-family="sans-serif" font-size="12" lengthAdjust="spacingAndGlyphs" textLength="16" x="1047" y="155.0137">13</text><text fill="#000000" font-family="sans-serif" font-size="12" lengthAdjust="spacingAndGlyphs" textLength="16" x="1127" y="155.0137">14</text><text fill="#000000" font-family="sans-serif" font-size="12" lengthAdjust="spacingAndGlyphs" textLength="16" x="1207" y="155.0137">15</text><text fill="#000000" font-family="sans-serif" font-size="12" lengthAdjust="spacingAndGlyphs" textLength="16" x="1287" y="155.0137">16</text><text fill="#000000" font-family="sans-serif" font-size="12" lengthAdjust="spacingAndGlyphs" textLength="16" x="1367" y="155.0137">17</text><text fill="#000000" font-family="sans-serif" font-size="12" lengthAdjust="spacingAndGlyphs" textLength="16" x="1447" y="155.0137">18</text><text fill="#000000" font-family="sans-serif" font-size="12" lengthAdjust="spacingAndGlyphs" textLength="16" x="1527" y="155.0137">19</text><text fill="#000000" font-family="sans-serif" font-size="12" lengthAdjust="spacingAndGlyphs" textLength="16" x="1607" y="155.0137">20</text><text fill="#000000" font-family="sans-serif" font-size="12" lengthAdjust="spacingAndGlyphs" textLength="16" x="1687" y="155.0137">21</text><text fill="#000000" font-family="sans-serif" font-size="12" lengthAdjust="spacingAndGlyphs" textLength="16" x="1767" y="155.0137">22</text><text fill="#000000" font-family="sans-serif" font-size="12" lengthAdjust="spacingAndGlyphs" textLength="16" x="1847" y="155.0137">23</text><text fill="#000000" font-family="sans-serif" font-size="12" lengthAdjust="spacingAndGlyphs" textLength="16" x="1927" y="155.0137">24</text><text fill="#000000" font-family="sans-serif" font-size="12" lengthAdjust="spacingAndGlyphs" textLength="16" x="2007" y="155.0137">25</text><text fill="#000000" font-family="sans-serif" font-size="12" lengthAdjust="spacingAndGlyphs" textLength="16" x="2087" y="155.0137">26</text><text fill="#000000" font-family="sans-serif" font-size="12" lengthAdjust="spacingAndGlyphs" textLength="16" x="2167" y="155.0137">27</text><text fill="#000000" font-family="sans-serif" font-size="12" lengthAdjust="spacingAndGlyphs" textLength="16" x="2247" y="155.0137">28</text><text fill="#000000" font-family="sans-serif" font-size="12" lengthAdjust="spacingAndGlyphs" textLength="16" x="2327" y="155.0137">29</text><text fill="#000000" font-family="sans-serif" font-size="12" lengthAdjust="spacingAndGlyphs" textLength="16" x="2407" y="155.0137">30</text><text fill="#000000" font-family="sans-serif" font-size="12" lengthAdjust="spacingAndGlyphs" textLength="16" x="2487" y="155.0137">31</text><text fill="#000000" font-family="sans-serif" font-size="12" lengthAdjust="spacingAndGlyphs" textLength="16" x="2567" y="155.0137">32</text><text fill="#000000" font-family="sans-serif" font-size="12" lengthAdjust="spacingAndGlyphs" textLength="16" x="2647" y="155.0137">33</text><text fill="#000000" font-family="sans-serif" font-size="12" lengthAdjust="spacingAndGlyphs" textLength="16" x="2727" y="155.0137">34</text></g></svg>