<?xml version="1.0" encoding="UTF-8" standalone="no"?><svg xmlns="http://www.w3.org/2000/svg" xmlns:xlink="http://www.w3.org/1999/xlink" contentScriptType="application/ecmascript" contentStyleType="text/css" height="232px" preserveAspectRatio="none" style="width:2435px;height:232px;" version="1.1" viewBox="0 0 2435 232" width="2435px" zoomAndPan="magnify"><defs/><g><line style="stroke: #000000; stroke-width: 1.7;" x1="10" x2="10" y1="10" y2="201.8125"/><line style="stroke: #000000; stroke-width: 1.7;" x1="2420" x2="2420" y1="10" y2="201.8125"/><text fill="#000000" font-family="sans-serif" font-size="12" lengthAdjust="spacingAndGlyphs" textLength="54" x="15" y="21.1387">thread 0</text><line style="stroke: #000000; stroke-width: 1.0;" x1="10" x2="70" y1="24.9688" y2="24.9688"/><line style="stroke: #000000; stroke-width: 1.0;" x1="70" x2="80" y1="24.9688" y2="10"/><polygon fill="#FF0000" points="27,31.9375,403,31.9375,415,43.9375,403,55.9375,27,55.9375,15,43.9375" style="stroke: #038048; stroke-width: 1.5;"/><polygon fill="#D7E0F2" points="427,31.9375,563,31.9375,575,43.9375,563,55.9375,427,55.9375,415,43.9375" style="stroke: #038048; stroke-width: 1.5;"/><polygon fill="#FF0000" points="667,31.9375,1603,31.9375,1615,43.9375,1603,55.9375,667,55.9375,655,43.9375" style="stroke: #038048; stroke-width: 1.5;"/><polygon fill="#FF0000" points="1627,31.9375,2243,31.9375,2255,43.9375,2243,55.9375,1627,55.9375,1615,43.9375" style="stroke: #038048; stroke-width: 1.5;"/><polygon fill="#FF0000" points="2267,31.9375,2323,31.9375,2335,43.9375,2323,55.9375,2267,55.9375,2255,43.9375" style="stroke: #038048; stroke-width: 1.5;"/><text fill="#000000" font-family="sans-serif" font-size="12" lengthAdjust="spacingAndGlyphs" textLength="132" x="149" y="48.0918">catkin_tools_prebuild</text><text fill="#000000" font-family="sans-serif" font-size="12" lengthAdjust="spacingAndGlyphs" textLength="139" x="425.5" y="48.0918">turtlebot3_description</text><text fill="#000000" font-family="sans-serif" font-size="12" lengthAdjust="spacingAndGlyphs" textLength="117" x="1076.5" y="48.0918">turtlebot3_bringup</text><text fill="#000000" font-family="sans-serif" font-size="12" lengthAdjust="spacingAndGlyphs" textLength="121" x="1874.5" y="48.0918">turtlebot3_example</text><text fill="#000000" font-family="sans-serif" font-size="12" lengthAdjust="spacingAndGlyphs" textLength="63" x="2263.5" y="48.0918">turtlebot3</text><line style="stroke: #000000; stroke-width: 1.7;" x1="10" x2="2420" y1="10" y2="10"/><text fill="#000000" font-family="sans-serif" font-size="12" lengthAdjust="spacingAndGlyphs" textLength="54" x="15" y="85.0762">thread 1</text><line style="stroke: #000000; stroke-width: 1.0;" x1="10" x2="70" y1="88.9063" y2="88.9063"/><line style="stroke: #000000; stroke-width: 1.0;" x1="70" x2="80" y1="88.9063" y2="73.9375"/><polygon fill="#FF0000" points="427,95.875,643,95.875,655,107.875,643,119.875,427,119.875,415,107.875" style="stroke: #038048; stroke-width: 1.5;"/><polygon fill="#D7E0F2" points="1627,95.875,1763,95.875,1775,107.875,1763,119.875,1627,119.875,1615,107.875" style="stroke: #038048; stroke-width: 1.5;"/><text fill="#000000" font-family="sans-serif" font-size="12" lengthAdjust="spacingAndGlyphs" textLength="109" x="480.5" y="112.0293">turtlebot3_teleop</text><text fill="#000000" font-family="sans-serif" font-size="12" lengthAdjust="spacingAndGlyphs" textLength="134" x="1628" y="112.0293">turtlebot3_navigation</text><line style="stroke: #000000; stroke-width: 1.7;" x1="10" x2="2420" y1="73.9375" y2="73.9375"/><text fill="#000000" font-family="sans-serif" font-size="12" lengthAdjust="spacingAndGlyphs" textLength="54" x="15" y="149.0137">thread 2</text><line style="stroke: #000000; stroke-width: 1.0;" x1="10" x2="70" y1="152.8438" y2="152.8438"/><line style="stroke: #000000; stroke-width: 1.0;" x1="70" x2="80" y1="152.8438" y2="137.875"/><polygon fill="#D7E0F2" points="1627,159.8125,2003,159.8125,2015,171.8125,2003,183.8125,1627,183.8125,1615,171.8125" style="stroke: #038048; stroke-width: 1.5;"/><text fill="#000000" font-family="sans-serif" font-size="12" lengthAdjust="spacingAndGlyphs" textLength="98" x="1766" y="175.9668">turtlebot3_slam</text><line style="stroke: #000000; stroke-width: 1.7;" x1="10" x2="2420" y1="137.875" y2="137.875"/><line style="stroke: #000000; stroke-width: 2.0;" x1="15" x2="15" y1="201.8125" y2="206.8125"/><line style="stroke: #000000; stroke-width: 2.0;" x1="95" x2="95" y1="201.8125" y2="206.8125"/><line style="stroke: #000000; stroke-width: 2.0;" x1="175" x2="175" y1="201.8125" y2="206.8125"/><line style="stroke: #000000; stroke-width: 2.0;" x1="255" x2="255" y1="201.8125" y2="206.8125"/><line style="stroke: #000000; stroke-width: 2.0;" x1="335" x2="335" y1="201.8125" y2="206.8125"/><line style="stroke: #000000; stroke-width: 2.0;" x1="415" x2="415" y1="201.8125" y2="206.8125"/><line style="stroke: #000000; stroke-width: 2.0;" x1="495" x2="495" y1="201.8125" y2="206.8125"/><line style="stroke: #000000; stroke-width: 2.0;" x1="575" x2="575" y1="201.8125" y2="206.8125"/><line style="stroke: #000000; stroke-width: 2.0;" x1="655" x2="655" y1="201.8125" y2="206.8125"/><line style="stroke: #000000; stroke-width: 2.0;" x1="735" x2="735" y1="201.8125" y2="206.8125"/><line style="stroke: #000000; stroke-width: 2.0;" x1="815" x2="815" y1="201.8125" y2="206.8125"/><line style="stroke: #000000; stroke-width: 2.0;" x1="895" x2="895" y1="201.8125" y2="206.8125"/><line style="stroke: #000000; stroke-width: 2.0;" x1="975" x2="975" y1="201.8125" y2="206.8125"/><line style="stroke: #000000; stroke-width: 2.0;" x1="1055" x2="1055" y1="201.8125" y2="206.8125"/><line style="stroke: #000000; stroke-width: 2.0;" x1="1135" x2="1135" y1="201.8125" y2="206.8125"/><line style="stroke: #000000; stroke-width: 2.0;" x1="1215" x2="1215" y1="201.8125" y2="206.8125"/><line style="stroke: #000000; stroke-width: 2.0;" x1="1295" x2="1295" y1="201.8125" y2="206.8125"/><line style="stroke: #000000; stroke-width: 2.0;" x1="1375" x2="1375" y1="201.8125" y2="206.8125"/><line style="stroke: #000000; stroke-width: 2.0;" x1="1455" x2="1455" y1="201.8125" y2="206.8125"/><line style="stroke: #000000; stroke-width: 2.0;" x1="1535" x2="1535" y1="201.8125" y2="206.8125"/><line style="stroke: #000000; stroke-width: 2.0;" x1="1615" x2="1615" y1="201.8125" y2="206.8125"/><line style="stroke: #000000; stroke-width: 2.0;" x1="1695" x2="1695" y1="201.8125" y2="206.8125"/><line style="stroke: #000000; stroke-width: 2.0;" x1="1775" x2="1775" y1="201.8125" y2="206.8125"/><line style="stroke: #000000; stroke-width: 2.0;" x1="1855" x2="1855" y1="201.8125" y2="206.8125"/><line style="stroke: #000000; stroke-width: 2.0;" x1="1935" x2="1935" y1="201.8125" y2="206.8125"/><line style="stroke: #000000; stroke-width: 2.0;" x1="2015" x2="2015" y1="201.8125" y2="206.8125"/><line style="stroke: #000000; stroke-width: 2.0;" x1="2095" x2="2095" y1="201.8125" y2="206.8125"/><line style="stroke: #000000; stroke-width: 2.0;" x1="2175" x2="2175" y1="201.8125" y2="206.8125"/><line style="stroke: #000000; stroke-width: 2.0;" x1="2255" x2="2255" y1="201.8125" y2="206.8125"/><line style="stroke: #000000; stroke-width: 2.0;" x1="2335" x2="2335" y1="201.8125" y2="206.8125"/><line style="stroke: #000000; stroke-width: 2.0;" x1="2415" x2="2415" y1="201.8125" y2="206.8125"/><line style="stroke: #000000; stroke-width: 2.0;" x1="15" x2="2415" y1="201.8125" y2="201.8125"/><text fill="#000000" font-family="sans-serif" font-size="12" lengthAdjust="spacingAndGlyphs" textLength="8" x="11" y="218.9512">0</text><text fill="#000000" font-family="sans-serif" font-size="12" lengthAdjust="spacingAndGlyphs" textLength="8" x="91" y="218.9512">1</text><text fill="#000000" font-family="sans-serif" font-size="12" lengthAdjust="spacingAndGlyphs" textLength="8" x="171" y="218.9512">2</text><text fill="#000000" font-family="sans-serif" font-size="12" lengthAdjust="spacingAndGlyphs" textLength="8" x="251" y="218.9512">3</text><text fill="#000000" font-family="sans-serif" font-size="12" lengthAdjust="spacingAndGlyphs" textLength="8" x="331" y="218.9512">4</text><text fill="#000000" font-family="sans-serif" font-size="12" lengthAdjust="spacingAndGlyphs" textLength="8" x="411" y="218.9512">5</text><text fill="#000000" font-family="sans-serif" font-size="12" lengthAdjust="spacingAndGlyphs" textLength="8" x="491" y="218.9512">6</text><text fill="#000000" font-family="sans-serif" font-size="12" lengthAdjust="spacingAndGlyphs" textLength="8" x="571" y="218.9512">7</text><text fill="#000000" font-family="sans-serif" font-size="12" lengthAdjust="spacingAndGlyphs" textLength="8" x="651" y="218.9512">8</text><text fill="#000000" font-family="sans-serif" font-size="12" lengthAdjust="spacingAndGlyphs" textLength="8" x="731" y="218.9512">9</text><text fill="#000000" font-family="sans-serif" font-size="12" lengthAdjust="spacingAndGlyphs" textLength="16" x="807" y="218.9512">10</text><text fill="#000000" font-family="sans-serif" font-size="12" lengthAdjust="spacingAndGlyphs" textLength="16" x="887" y="218.9512">11</text><text fill="#000000" font-family="sans-serif" font-size="12" lengthAdjust="spacingAndGlyphs" textLength="16" x="967" y="218.9512">12</text><text fill="#000000" font-family="sans-serif" font-size="12" lengthAdjust="spacingAndGlyphs" textLength="16" x="1047" y="218.9512">13</text><text fill="#000000" font-family="sans-serif" font-size="12" lengthAdjust="spacingAndGlyphs" textLength="16" x="1127" y="218.9512">14</text><text fill="#000000" font-family="sans-serif" font-size="12" lengthAdjust="spacingAndGlyphs" textLength="16" x="1207" y="218.9512">15</text><text fill="#000000" font-family="sans-serif" font-size="12" lengthAdjust="spacingAndGlyphs" textLength="16" x="1287" y="218.9512">16</text><text fill="#000000" font-family="sans-serif" font-size="12" lengthAdjust="spacingAndGlyphs" textLength="16" x="1367" y="218.9512">17</text><text fill="#000000" font-family="sans-serif" font-size="12" lengthAdjust="spacingAndGlyphs" textLength="16" x="1447" y="218.9512">18</text><text fill="#000000" font-family="sans-serif" font-size="12" lengthAdjust="spacingAndGlyphs" textLength="16" x="1527" y="218.9512">19</text><text fill="#000000" font-family="sans-serif" font-size="12" lengthAdjust="spacingAndGlyphs" textLength="16" x="1607" y="218.9512">20</text><text fill="#000000" font-family="sans-serif" font-size="12" lengthAdjust="spacingAndGlyphs" textLength="16" x="1687" y="218.9512">21</text><text fill="#000000" font-family="sans-serif" font-size="12" lengthAdjust="spacingAndGlyphs" textLength="16" x="1767" y="218.9512">22</text><text fill="#000000" font-family="sans-serif" font-size="12" lengthAdjust="spacingAndGlyphs" textLength="16" x="1847" y="218.9512">23</text><text fill="#000000" font-family="sans-serif" font-size="12" lengthAdjust="spacingAndGlyphs" textLength="16" x="1927" y="218.9512">24</text><text fill="#000000" font-family="sans-serif" font-size="12" lengthAdjust="spacingAndGlyphs" textLength="16" x="2007" y="218.9512">25</text><text fill="#000000" font-family="sans-serif" font-size="12" lengthAdjust="spacingAndGlyphs" textLength="16" x="2087" y="218.9512">26</text><text fill="#000000" font-family="sans-serif" font-size="12" lengthAdjust="spacingAndGlyphs" textLength="16" x="2167" y="218.9512">27</text><text fill="#000000" font-family="sans-serif" font-size="12" lengthAdjust="spacingAndGlyphs" textLength="16" x="2247" y="218.9512">28</text><text fill="#000000" font-family="sans-serif" font-size="12" lengthAdjust="spacingAndGlyphs" textLength="16" x="2327" y="218.9512">29</text><text fill="#000000" font-family="sans-serif" font-size="12" lengthAdjust="spacingAndGlyphs" textLength="16" x="2407" y="218.9512">30</text></g></svg>