<?xml version="1.0" encoding="UTF-8" standalone="no"?><svg xmlns="http://www.w3.org/2000/svg" xmlns:xlink="http://www.w3.org/1999/xlink" contentScriptType="application/ecmascript" contentStyleType="text/css" height="232px" preserveAspectRatio="none" style="width:1475px;height:232px;" version="1.1" viewBox="0 0 1475 232" width="1475px" zoomAndPan="magnify"><defs/><g><line style="stroke: #000000; stroke-width: 1.7;" x1="10" x2="10" y1="10" y2="201.8125"/><line style="stroke: #000000; stroke-width: 1.7;" x1="1460" x2="1460" y1="10" y2="201.8125"/><text fill="#000000" font-family="sans-serif" font-size="12" lengthAdjust="spacingAndGlyphs" textLength="54" x="15" y="21.1387">thread 0</text><line style="stroke: #000000; stroke-width: 1.0;" x1="10" x2="70" y1="24.9688" y2="24.9688"/><line style="stroke: #000000; stroke-width: 1.0;" x1="70" x2="80" y1="24.9688" y2="10"/><polygon fill="#FF0000" points="27,31.9375,83,31.9375,95,43.9375,83,55.9375,27,55.9375,15,43.9375" style="stroke: #038048; stroke-width: 1.5;"/><polygon fill="#D7E0F2" points="107,31.9375,323,31.9375,335,43.9375,323,55.9375,107,55.9375,95,43.9375" style="stroke: #038048; stroke-width: 1.5;"/><polygon fill="#FF0000" points="347,31.9375,803,31.9375,815,43.9375,803,55.9375,347,55.9375,335,43.9375" style="stroke: #038048; stroke-width: 1.5;"/><polygon fill="#D7E0F2" points="827,31.9375,1203,31.9375,1215,43.9375,1203,55.9375,827,55.9375,815,43.9375" style="stroke: #038048; stroke-width: 1.5;"/><polygon fill="#FF0000" points="1227,31.9375,1363,31.9375,1375,43.9375,1363,55.9375,1227,55.9375,1215,43.9375" style="stroke: #038048; stroke-width: 1.5;"/><text fill="#000000" font-family="sans-serif" font-size="12" lengthAdjust="spacingAndGlyphs" textLength="132" x="-11" y="48.0918">catkin_tools_prebuild</text><text fill="#000000" font-family="sans-serif" font-size="12" lengthAdjust="spacingAndGlyphs" textLength="139" x="145.5" y="48.0918">turtlebot3_description</text><text fill="#000000" font-family="sans-serif" font-size="12" lengthAdjust="spacingAndGlyphs" textLength="117" x="516.5" y="48.0918">turtlebot3_bringup</text><text fill="#000000" font-family="sans-serif" font-size="12" lengthAdjust="spacingAndGlyphs" textLength="121" x="954.5" y="48.0918">turtlebot3_example</text><text fill="#000000" font-family="sans-serif" font-size="12" lengthAdjust="spacingAndGlyphs" textLength="63" x="1263.5" y="48.0918">turtlebot3</text><line style="stroke: #000000; stroke-width: 1.7;" x1="10" x2="1460" y1="10" y2="10"/><text fill="#000000" font-family="sans-serif" font-size="12" lengthAdjust="spacingAndGlyphs" textLength="54" x="15" y="85.0762">thread 1</text><line style="stroke: #000000; stroke-width: 1.0;" x1="10" x2="70" y1="88.9063" y2="88.9063"/><line style="stroke: #000000; stroke-width: 1.0;" x1="70" x2="80" y1="88.9063" y2="73.9375"/><polygon fill="#FF0000" points="107,95.875,323,95.875,335,107.875,323,119.875,107,119.875,95,107.875" style="stroke: #038048; stroke-width: 1.5;"/><polygon fill="#D7E0F2" points="827,95.875,963,95.875,975,107.875,963,119.875,827,119.875,815,107.875" style="stroke: #038048; stroke-width: 1.5;"/><text fill="#000000" font-family="sans-serif" font-size="12" lengthAdjust="spacingAndGlyphs" textLength="109" x="160.5" y="112.0293">turtlebot3_teleop</text><text fill="#000000" font-family="sans-serif" font-size="12" lengthAdjust="spacingAndGlyphs" textLength="134" x="828" y="112.0293">turtlebot3_navigation</text><line style="stroke: #000000; stroke-width: 1.7;" x1="10" x2="1460" y1="73.9375" y2="73.9375"/><text fill="#000000" font-family="sans-serif" font-size="12" lengthAdjust="spacingAndGlyphs" textLength="54" x="15" y="149.0137">thread 2</text><line style="stroke: #000000; stroke-width: 1.0;" x1="10" x2="70" y1="152.8438" y2="152.8438"/><line style="stroke: #000000; stroke-width: 1.0;" x1="70" x2="80" y1="152.8438" y2="137.875"/><polygon fill="#FF0000" points="827,159.8125,1203,159.8125,1215,171.8125,1203,183.8125,827,183.8125,815,171.8125" style="stroke: #038048; stroke-width: 1.5;"/><text fill="#000000" font-family="sans-serif" font-size="12" lengthAdjust="spacingAndGlyphs" textLength="98" x="966" y="175.9668">turtlebot3_slam</text><line style="stroke: #000000; stroke-width: 1.7;" x1="10" x2="1460" y1="137.875" y2="137.875"/><line style="stroke: #000000; stroke-width: 2.0;" x1="15" x2="15" y1="201.8125" y2="206.8125"/><line style="stroke: #000000; stroke-width: 2.0;" x1="95" x2="95" y1="201.8125" y2="206.8125"/><line style="stroke: #000000; stroke-width: 2.0;" x1="175" x2="175" y1="201.8125" y2="206.8125"/><line style="stroke: #000000; stroke-width: 2.0;" x1="255" x2="255" y1="201.8125" y2="206.8125"/><line style="stroke: #000000; stroke-width: 2.0;" x1="335" x2="335" y1="201.8125" y2="206.8125"/><line style="stroke: #000000; stroke-width: 2.0;" x1="415" x2="415" y1="201.8125" y2="206.8125"/><line style="stroke: #000000; stroke-width: 2.0;" x1="495" x2="495" y1="201.8125" y2="206.8125"/><line style="stroke: #000000; stroke-width: 2.0;" x1="575" x2="575" y1="201.8125" y2="206.8125"/><line style="stroke: #000000; stroke-width: 2.0;" x1="655" x2="655" y1="201.8125" y2="206.8125"/><line style="stroke: #000000; stroke-width: 2.0;" x1="735" x2="735" y1="201.8125" y2="206.8125"/><line style="stroke: #000000; stroke-width: 2.0;" x1="815" x2="815" y1="201.8125" y2="206.8125"/><line style="stroke: #000000; stroke-width: 2.0;" x1="895" x2="895" y1="201.8125" y2="206.8125"/><line style="stroke: #000000; stroke-width: 2.0;" x1="975" x2="975" y1="201.8125" y2="206.8125"/><line style="stroke: #000000; stroke-width: 2.0;" x1="1055" x2="1055" y1="201.8125" y2="206.8125"/><line style="stroke: #000000; stroke-width: 2.0;" x1="1135" x2="1135" y1="201.8125" y2="206.8125"/><line style="stroke: #000000; stroke-width: 2.0;" x1="1215" x2="1215" y1="201.8125" y2="206.8125"/><line style="stroke: #000000; stroke-width: 2.0;" x1="1295" x2="1295" y1="201.8125" y2="206.8125"/><line style="stroke: #000000; stroke-width: 2.0;" x1="1375" x2="1375" y1="201.8125" y2="206.8125"/><line style="stroke: #000000; stroke-width: 2.0;" x1="1455" x2="1455" y1="201.8125" y2="206.8125"/><line style="stroke: #000000; stroke-width: 2.0;" x1="15" x2="1455" y1="201.8125" y2="201.8125"/><text fill="#000000" font-family="sans-serif" font-size="12" lengthAdjust="spacingAndGlyphs" textLength="8" x="11" y="218.9512">0</text><text fill="#000000" font-family="sans-serif" font-size="12" lengthAdjust="spacingAndGlyphs" textLength="8" x="91" y="218.9512">1</text><text fill="#000000" font-family="sans-serif" font-size="12" lengthAdjust="spacingAndGlyphs" textLength="8" x="171" y="218.9512">2</text><text fill="#000000" font-family="sans-serif" font-size="12" lengthAdjust="spacingAndGlyphs" textLength="8" x="251" y="218.9512">3</text><text fill="#000000" font-family="sans-serif" font-size="12" lengthAdjust="spacingAndGlyphs" textLength="8" x="331" y="218.9512">4</text><text fill="#000000" font-family="sans-serif" font-size="12" lengthAdjust="spacingAndGlyphs" textLength="8" x="411" y="218.9512">5</text><text fill="#000000" font-family="sans-serif" font-size="12" lengthAdjust="spacingAndGlyphs" textLength="8" x="491" y="218.9512">6</text><text fill="#000000" font-family="sans-serif" font-size="12" lengthAdjust="spacingAndGlyphs" textLength="8" x="571" y="218.9512">7</text><text fill="#000000" font-family="sans-serif" font-size="12" lengthAdjust="spacingAndGlyphs" textLength="8" x="651" y="218.9512">8</text><text fill="#000000" font-family="sans-serif" font-size="12" lengthAdjust="spacingAndGlyphs" textLength="8" x="731" y="218.9512">9</text><text fill="#000000" font-family="sans-serif" font-size="12" lengthAdjust="spacingAndGlyphs" textLength="16" x="807" y="218.9512">10</text><text fill="#000000" font-family="sans-serif" font-size="12" lengthAdjust="spacingAndGlyphs" textLength="16" x="887" y="218.9512">11</text><text fill="#000000" font-family="sans-serif" font-size="12" lengthAdjust="spacingAndGlyphs" textLength="16" x="967" y="218.9512">12</text><text fill="#000000" font-family="sans-serif" font-size="12" lengthAdjust="spacingAndGlyphs" textLength="16" x="1047" y="218.9512">13</text><text fill="#000000" font-family="sans-serif" font-size="12" lengthAdjust="spacingAndGlyphs" textLength="16" x="1127" y="218.9512">14</text><text fill="#000000" font-family="sans-serif" font-size="12" lengthAdjust="spacingAndGlyphs" textLength="16" x="1207" y="218.9512">15</text><text fill="#000000" font-family="sans-serif" font-size="12" lengthAdjust="spacingAndGlyphs" textLength="16" x="1287" y="218.9512">16</text><text fill="#000000" font-family="sans-serif" font-size="12" lengthAdjust="spacingAndGlyphs" textLength="16" x="1367" y="218.9512">17</text><text fill="#000000" font-family="sans-serif" font-size="12" lengthAdjust="spacingAndGlyphs" textLength="16" x="1447" y="218.9512">18</text></g></svg>